<mxfile host="65bd71144e">
    <diagram id="D4uo4PPuO1mmKzMtp3vS" name="Page-1">
        <mxGraphModel dx="2476" dy="864" grid="1" gridSize="10" guides="1" tooltips="1" connect="1" arrows="1" fold="1" page="1" pageScale="1" pageWidth="827" pageHeight="1169" background="#FFFFFF" math="0" shadow="0">
            <root>
                <mxCell id="0"/>
                <mxCell id="1" parent="0"/>
                <mxCell id="lHQKWS6F-UGgx3MxF6t4-1" value="Page 1" style="rounded=0;whiteSpace=wrap;html=1;" parent="1" vertex="1">
                    <mxGeometry x="350" y="270" width="120" height="60" as="geometry"/>
                </mxCell>
                <mxCell id="lHQKWS6F-UGgx3MxF6t4-2" value="Page 0" style="rounded=0;whiteSpace=wrap;html=1;" parent="1" vertex="1">
                    <mxGeometry x="350" y="210" width="120" height="60" as="geometry"/>
                </mxCell>
                <mxCell id="lHQKWS6F-UGgx3MxF6t4-3" value="Page 512" style="rounded=0;whiteSpace=wrap;html=1;" parent="1" vertex="1">
                    <mxGeometry x="350" y="540" width="120" height="60" as="geometry"/>
                </mxCell>
                <mxCell id="lHQKWS6F-UGgx3MxF6t4-4" value="Page 3" style="rounded=0;whiteSpace=wrap;html=1;" parent="1" vertex="1">
                    <mxGeometry x="350" y="390" width="120" height="60" as="geometry"/>
                </mxCell>
                <mxCell id="lHQKWS6F-UGgx3MxF6t4-5" value="Page 2" style="rounded=0;whiteSpace=wrap;html=1;" parent="1" vertex="1">
                    <mxGeometry x="350" y="330" width="120" height="60" as="geometry"/>
                </mxCell>
                <mxCell id="lHQKWS6F-UGgx3MxF6t4-6" value="Physical Memory" style="text;html=1;strokeColor=none;fillColor=none;align=center;verticalAlign=middle;whiteSpace=wrap;rounded=0;" parent="1" vertex="1">
                    <mxGeometry x="380" y="160" width="60" height="30" as="geometry"/>
                </mxCell>
                <mxCell id="lHQKWS6F-UGgx3MxF6t4-7" value="" style="endArrow=none;dashed=1;html=1;dashPattern=1 3;strokeWidth=2;rounded=0;entryX=0.5;entryY=1;entryDx=0;entryDy=0;exitX=0.5;exitY=0;exitDx=0;exitDy=0;" parent="1" source="lHQKWS6F-UGgx3MxF6t4-3" target="lHQKWS6F-UGgx3MxF6t4-4" edge="1">
                    <mxGeometry width="50" height="50" relative="1" as="geometry">
                        <mxPoint x="160" y="520" as="sourcePoint"/>
                        <mxPoint x="210" y="470" as="targetPoint"/>
                    </mxGeometry>
                </mxCell>
                <mxCell id="lHQKWS6F-UGgx3MxF6t4-8" value="Physical Address&amp;nbsp;0x000FF000" style="shape=flexArrow;endArrow=classic;html=1;rounded=0;" parent="1" edge="1">
                    <mxGeometry x="-1" y="-30" width="50" height="50" relative="1" as="geometry">
                        <mxPoint x="270" y="210.0000000000001" as="sourcePoint"/>
                        <mxPoint x="350" y="210.0000000000001" as="targetPoint"/>
                        <mxPoint x="-30" y="-30" as="offset"/>
                    </mxGeometry>
                </mxCell>
                <mxCell id="lHQKWS6F-UGgx3MxF6t4-9" value="2^13 bytes, 8KB page" style="endArrow=classic;startArrow=classic;html=1;rounded=0;" parent="1" edge="1">
                    <mxGeometry width="50" height="50" relative="1" as="geometry">
                        <mxPoint x="330" y="330" as="sourcePoint"/>
                        <mxPoint x="330" y="269.9999999999999" as="targetPoint"/>
                    </mxGeometry>
                </mxCell>
                <mxCell id="lHQKWS6F-UGgx3MxF6t4-10" value="513 * 8KB = 4MB and 8KB - necessary as we have 2 extra bytes" style="endArrow=classic;startArrow=classic;html=1;rounded=0;" parent="1" edge="1">
                    <mxGeometry width="50" height="50" relative="1" as="geometry">
                        <mxPoint x="150" y="600" as="sourcePoint"/>
                        <mxPoint x="150" y="210.0000000000001" as="targetPoint"/>
                    </mxGeometry>
                </mxCell>
                <mxCell id="lHQKWS6F-UGgx3MxF6t4-11" value="Tertiary Page Tables" style="text;html=1;strokeColor=none;fillColor=none;align=center;verticalAlign=middle;whiteSpace=wrap;rounded=0;" parent="1" vertex="1">
                    <mxGeometry x="630" y="160" width="60" height="30" as="geometry"/>
                </mxCell>
                <mxCell id="lHQKWS6F-UGgx3MxF6t4-12" value="Tertiary Page Table 0" style="rounded=0;whiteSpace=wrap;html=1;" parent="1" vertex="1">
                    <mxGeometry x="600" y="210" width="120" height="60" as="geometry"/>
                </mxCell>
                <mxCell id="lHQKWS6F-UGgx3MxF6t4-13" value="Tertiary Page Table 17" style="rounded=0;whiteSpace=wrap;html=1;" parent="1" vertex="1">
                    <mxGeometry x="600" y="540" width="120" height="60" as="geometry"/>
                </mxCell>
                <mxCell id="lHQKWS6F-UGgx3MxF6t4-14" value="" style="endArrow=none;dashed=1;html=1;dashPattern=1 3;strokeWidth=2;rounded=0;entryX=0.5;entryY=1;entryDx=0;entryDy=0;exitX=0.5;exitY=0;exitDx=0;exitDy=0;" parent="1" source="lHQKWS6F-UGgx3MxF6t4-13" target="lHQKWS6F-UGgx3MxF6t4-12" edge="1">
                    <mxGeometry width="50" height="50" relative="1" as="geometry">
                        <mxPoint x="420" y="550" as="sourcePoint"/>
                        <mxPoint x="420" y="460" as="targetPoint"/>
                    </mxGeometry>
                </mxCell>
                <mxCell id="lHQKWS6F-UGgx3MxF6t4-15" value="32 (2^5)&lt;br&gt;Entries in Page&lt;br&gt;Table" style="endArrow=classic;startArrow=classic;html=1;rounded=0;" parent="1" edge="1">
                    <mxGeometry y="40" width="50" height="50" relative="1" as="geometry">
                        <mxPoint x="800" y="600" as="sourcePoint"/>
                        <mxPoint x="800" y="540" as="targetPoint"/>
                        <mxPoint as="offset"/>
                    </mxGeometry>
                </mxCell>
                <mxCell id="lHQKWS6F-UGgx3MxF6t4-16" value="" style="endArrow=classic;startArrow=classic;html=1;rounded=0;exitX=1;exitY=0.5;exitDx=0;exitDy=0;entryX=0;entryY=0.5;entryDx=0;entryDy=0;" parent="1" source="lHQKWS6F-UGgx3MxF6t4-4" target="lHQKWS6F-UGgx3MxF6t4-12" edge="1">
                    <mxGeometry width="50" height="50" relative="1" as="geometry">
                        <mxPoint x="610" y="390" as="sourcePoint"/>
                        <mxPoint x="660" y="340" as="targetPoint"/>
                    </mxGeometry>
                </mxCell>
                <mxCell id="lHQKWS6F-UGgx3MxF6t4-17" value="" style="endArrow=classic;startArrow=classic;html=1;rounded=0;exitX=1;exitY=0.5;exitDx=0;exitDy=0;entryX=0;entryY=0.5;entryDx=0;entryDy=0;" parent="1" source="lHQKWS6F-UGgx3MxF6t4-5" target="lHQKWS6F-UGgx3MxF6t4-12" edge="1">
                    <mxGeometry width="50" height="50" relative="1" as="geometry">
                        <mxPoint x="480" y="430" as="sourcePoint"/>
                        <mxPoint x="610" y="250" as="targetPoint"/>
                    </mxGeometry>
                </mxCell>
                <mxCell id="lHQKWS6F-UGgx3MxF6t4-18" value="" style="endArrow=classic;startArrow=classic;html=1;rounded=0;exitX=1;exitY=0.5;exitDx=0;exitDy=0;entryX=0;entryY=0.5;entryDx=0;entryDy=0;" parent="1" source="lHQKWS6F-UGgx3MxF6t4-1" target="lHQKWS6F-UGgx3MxF6t4-12" edge="1">
                    <mxGeometry width="50" height="50" relative="1" as="geometry">
                        <mxPoint x="480" y="370" as="sourcePoint"/>
                        <mxPoint x="610" y="250" as="targetPoint"/>
                    </mxGeometry>
                </mxCell>
                <mxCell id="lHQKWS6F-UGgx3MxF6t4-19" value="" style="endArrow=classic;startArrow=classic;html=1;rounded=0;exitX=1;exitY=0.5;exitDx=0;exitDy=0;entryX=0;entryY=0.5;entryDx=0;entryDy=0;" parent="1" source="lHQKWS6F-UGgx3MxF6t4-2" target="lHQKWS6F-UGgx3MxF6t4-12" edge="1">
                    <mxGeometry width="50" height="50" relative="1" as="geometry">
                        <mxPoint x="480" y="310" as="sourcePoint"/>
                        <mxPoint x="610" y="250" as="targetPoint"/>
                    </mxGeometry>
                </mxCell>
                <mxCell id="lHQKWS6F-UGgx3MxF6t4-20" value="" style="endArrow=classic;startArrow=classic;html=1;rounded=0;exitX=1;exitY=0.5;exitDx=0;exitDy=0;entryX=0;entryY=0.5;entryDx=0;entryDy=0;" parent="1" source="lHQKWS6F-UGgx3MxF6t4-3" target="lHQKWS6F-UGgx3MxF6t4-13" edge="1">
                    <mxGeometry width="50" height="50" relative="1" as="geometry">
                        <mxPoint x="480" y="250" as="sourcePoint"/>
                        <mxPoint x="610" y="250" as="targetPoint"/>
                    </mxGeometry>
                </mxCell>
                <mxCell id="lHQKWS6F-UGgx3MxF6t4-21" value="32 Entries in Tertiary Page Table, 513/32 = 17 Page Tables Required" style="text;html=1;strokeColor=none;fillColor=none;align=center;verticalAlign=middle;whiteSpace=wrap;rounded=0;" parent="1" vertex="1">
                    <mxGeometry x="570" y="610" width="180" height="30" as="geometry"/>
                </mxCell>
                <mxCell id="lHQKWS6F-UGgx3MxF6t4-22" value="Physical Address 0x004FF002" style="shape=flexArrow;endArrow=classic;html=1;rounded=0;" parent="1" edge="1">
                    <mxGeometry x="-1" y="-30" width="50" height="50" relative="1" as="geometry">
                        <mxPoint x="270" y="599" as="sourcePoint"/>
                        <mxPoint x="350" y="599" as="targetPoint"/>
                        <mxPoint x="-30" y="-30" as="offset"/>
                    </mxGeometry>
                </mxCell>
                <mxCell id="lHQKWS6F-UGgx3MxF6t4-23" value="Secondary Page Tables" style="text;html=1;strokeColor=none;fillColor=none;align=center;verticalAlign=middle;whiteSpace=wrap;rounded=0;" parent="1" vertex="1">
                    <mxGeometry x="880" y="160" width="60" height="30" as="geometry"/>
                </mxCell>
                <mxCell id="lHQKWS6F-UGgx3MxF6t4-24" value="Secondary Page Table 0" style="rounded=0;whiteSpace=wrap;html=1;" parent="1" vertex="1">
                    <mxGeometry x="850" y="210" width="120" height="60" as="geometry"/>
                </mxCell>
                <mxCell id="lHQKWS6F-UGgx3MxF6t4-26" value="128 Entries&amp;nbsp;&lt;br&gt;In Page Table,&lt;br&gt;1 Page Required" style="endArrow=classic;startArrow=classic;html=1;rounded=0;" parent="1" edge="1">
                    <mxGeometry x="1" y="30" width="50" height="50" relative="1" as="geometry">
                        <mxPoint x="827" y="270" as="sourcePoint"/>
                        <mxPoint x="827" y="209.9999999999999" as="targetPoint"/>
                        <mxPoint x="30" y="-30" as="offset"/>
                    </mxGeometry>
                </mxCell>
                <mxCell id="lHQKWS6F-UGgx3MxF6t4-27" value="" style="endArrow=classic;startArrow=classic;html=1;rounded=0;entryX=0;entryY=0.5;entryDx=0;entryDy=0;exitX=1;exitY=0.5;exitDx=0;exitDy=0;" parent="1" source="lHQKWS6F-UGgx3MxF6t4-12" target="lHQKWS6F-UGgx3MxF6t4-24" edge="1">
                    <mxGeometry width="50" height="50" relative="1" as="geometry">
                        <mxPoint x="750" y="240" as="sourcePoint"/>
                        <mxPoint x="840" y="240" as="targetPoint"/>
                    </mxGeometry>
                </mxCell>
                <mxCell id="lHQKWS6F-UGgx3MxF6t4-28" value="" style="endArrow=classic;startArrow=classic;html=1;rounded=0;entryX=1;entryY=0.5;entryDx=0;entryDy=0;exitX=0;exitY=0.5;exitDx=0;exitDy=0;" parent="1" source="lHQKWS6F-UGgx3MxF6t4-24" target="lHQKWS6F-UGgx3MxF6t4-13" edge="1">
                    <mxGeometry width="50" height="50" relative="1" as="geometry">
                        <mxPoint x="780" y="440" as="sourcePoint"/>
                        <mxPoint x="830" y="390" as="targetPoint"/>
                    </mxGeometry>
                </mxCell>
                <mxCell id="lHQKWS6F-UGgx3MxF6t4-29" value="Primary Page Table" style="text;html=1;strokeColor=none;fillColor=none;align=center;verticalAlign=middle;whiteSpace=wrap;rounded=0;" parent="1" vertex="1">
                    <mxGeometry x="1130" y="160" width="60" height="30" as="geometry"/>
                </mxCell>
                <mxCell id="lHQKWS6F-UGgx3MxF6t4-30" value="Primary Page Table 0" style="rounded=0;whiteSpace=wrap;html=1;" parent="1" vertex="1">
                    <mxGeometry x="1100" y="210" width="120" height="60" as="geometry"/>
                </mxCell>
                <mxCell id="lHQKWS6F-UGgx3MxF6t4-32" value="" style="endArrow=classic;startArrow=classic;html=1;rounded=0;entryX=0;entryY=0.5;entryDx=0;entryDy=0;exitX=1;exitY=0.5;exitDx=0;exitDy=0;" parent="1" source="lHQKWS6F-UGgx3MxF6t4-24" target="lHQKWS6F-UGgx3MxF6t4-30" edge="1">
                    <mxGeometry width="50" height="50" relative="1" as="geometry">
                        <mxPoint x="730" y="250" as="sourcePoint"/>
                        <mxPoint x="860" y="250" as="targetPoint"/>
                    </mxGeometry>
                </mxCell>
                <mxCell id="lHQKWS6F-UGgx3MxF6t4-34" value="128 Entries&amp;nbsp;&lt;br&gt;In Page Table,&lt;br&gt;1 Page Required" style="endArrow=classic;startArrow=classic;html=1;rounded=0;" parent="1" edge="1">
                    <mxGeometry x="1" y="30" width="50" height="50" relative="1" as="geometry">
                        <mxPoint x="1080" y="270" as="sourcePoint"/>
                        <mxPoint x="1080" y="209.9999999999999" as="targetPoint"/>
                        <mxPoint x="30" y="-30" as="offset"/>
                    </mxGeometry>
                </mxCell>
            </root>
        </mxGraphModel>
    </diagram>
</mxfile>